<?xml version="1.0" encoding="utf-8"?>
<!-- Generator: Adobe Illustrator 25.2.3, SVG Export Plug-In . SVG Version: 6.00 Build 0)  -->
<svg version="1.1" id="Layer_1" xmlns="http://www.w3.org/2000/svg" xmlns:xlink="http://www.w3.org/1999/xlink" x="0px" y="0px"
	 viewBox="0 0 20.4 21.5" style="enable-background:new 0 0 20.4 21.5;" xml:space="preserve">
<style type="text/css">
	.st0{fill:#FFFFFF;}
</style>
<path class="st0" d="M0.4,21.1c0.3,0.3,0.6,0.4,0.9,0.4c0.4,0,0.7-0.1,0.9-0.4l8-8.4l8,8.4c0.2,0.3,0.6,0.4,0.9,0.4
	c0.4,0,0.7-0.1,0.9-0.4s0.4-0.6,0.4-1c0-0.4-0.1-0.7-0.4-1l-8-8.4l8-8.4c0.2-0.3,0.4-0.6,0.4-1c0-0.4-0.1-0.7-0.4-1
	C19.8,0.1,19.5,0,19.1,0s-0.7,0.1-0.9,0.4l-8,8.4l-8-8.4C2,0.1,1.7,0,1.3,0C0.9,0,0.6,0.1,0.4,0.4C0.1,0.7,0,1,0,1.4
	c0,0.4,0.1,0.7,0.4,1l8,8.4l-8,8.4c-0.2,0.3-0.4,0.6-0.4,1C0,20.5,0.1,20.9,0.4,21.1z"/>
</svg>
